The.Amityville.Haunting.2011.BRRip.XviD-RLF 
-------------------------------------------
                                            

GENERAL


Complete name: rlf-amityville.avi
Format: AVI
Format/Info: Audio Video Interleave
File size: 703 MiB
Duration: 1h 26mn
Overall bit rate: 1 135 Kbps
Language: English
Subs: N/A 
Encoder: Ralf

Video:

                     
Format: MPEG-4 Visual
Format profile: Advanced Simple@L5
Format settings, BVOP: 2
Format settings, QPel: No
Format settings, GMC: No warppoints
Format settings, Matrix: H.263
Muxing mode: Packed bitstream
Codec ID: XVID
Duration: 1h 26mn
Bit rate: 1 014 Kbps
Width: 688 pixels
Height: 384 pixels
Display aspect ratio: 16:9
Frame rate: 23.976 fps
Color space: YUV
Chroma subsampling: 4:2:0
Bit depth: 8 bits
Scan type: Progressive
Bits/(Pixel*Frame): 0.160
Stream size: 628 MiB (88%)
Writing library: XviD 63

Audio:


Format: MPEG Audio
Format profile: Layer 3
Codec ID/Hint: MP3
Duration: 1h 26mn
Bit rate mode: Constant
Bit rate: 112 Kbps
Channel(s): 2 channels
Sampling rate: 48.0 KHz
Stream size: 69.4 MiB (10%)
Alignment: Split accross interleaves
Interleave, duration: 40 ms (1.00 video frame)
Interleave, preload duration: 500 ms


MOVIE INFO

Actual found footage that documents the horrifying experiences of a 
family that moved into the infamous haunted house.
                                
http://www.imdb.com/title/tt2042447/ 
http://www.filmweb.pl/film/Amityville+Haunting-2011-636840

SCREENS
 
http://www.postimg.com/56000/photo-55621.jpg 
http://www.postimg.com/56000/photo-55622.jpg 
http://www.postimg.com/56000/photo-55623.jpg 
http://www.postimg.com/56000/photo-55624.jpg